<svg width="85" height="85" viewBox="0 0 85 85" fill="none" xmlns="http://www.w3.org/2000/svg">
<path d="M25.4585 67.7498C20.8293 67.7498 17.0839 71.5373 17.0839 76.1665C17.0839 80.7957 20.8293 84.5832 25.4585 84.5832C30.0877 84.5832 33.8752 80.7957 33.8752 76.1665C33.8752 71.5373 30.0877 67.7498 25.4585 67.7498ZM0.208496 0.416504V8.83317H8.62516L23.7752 40.7744L18.0939 51.0848C17.4206 52.2632 17.0418 53.6519 17.0418 55.1248C17.0418 59.754 20.8293 63.5415 25.4585 63.5415H75.9585V55.1248H27.226C26.6368 55.1248 26.1739 54.6619 26.1739 54.0728L26.3002 53.5678L30.0877 46.7082H61.4398C64.596 46.7082 67.3735 44.9828 68.8043 42.3736L83.8702 15.0615C84.2174 14.4193 84.3921 13.6979 84.3772 12.968C84.3623 12.238 84.1583 11.5244 83.7852 10.8969C83.412 10.2693 82.8825 9.74931 82.2483 9.3876C81.6141 9.02588 80.8969 8.83486 80.1668 8.83317H17.9256L13.9697 0.416504H0.208496ZM67.5418 67.7498C62.9127 67.7498 59.1672 71.5373 59.1672 76.1665C59.1672 80.7957 62.9127 84.5832 67.5418 84.5832C72.171 84.5832 75.9585 80.7957 75.9585 76.1665C75.9585 71.5373 72.171 67.7498 67.5418 67.7498Z" fill="black"/>
</svg>
