<svg width="72" height="72" viewBox="0 0 72 72" fill="none" xmlns="http://www.w3.org/2000/svg">
<path opacity="0.3" d="M20.0897 23.6256L7.71533 36L20.0897 48.3744L51.9272 48.392L51.9095 23.6256H20.0897ZM19.2058 38.6516C17.7386 40.1189 15.3698 40.1189 13.9025 38.6516C12.4353 37.1844 12.4353 34.8156 13.9025 33.3484C15.3698 31.8811 17.7386 31.8811 19.2058 33.3484C20.6731 34.8156 20.6731 37.1844 19.2058 38.6516Z" fill="#E75A5A"/>
<path d="M20.0723 18.6229C18.7995 18.6229 17.5267 19.1178 16.5544 20.0901L4.18007 32.4645C2.23552 34.409 2.23552 37.591 4.18007 39.5355L16.5544 51.9099C17.5267 52.8822 18.7995 53.3771 20.1076 53.3771L51.9275 53.3771C53.2002 53.3771 54.473 52.8822 55.4453 51.9099C56.4176 50.9376 56.9126 49.6648 56.8949 48.3744V23.6256C56.9126 22.3352 56.4176 21.0624 55.4453 20.0901C54.473 19.1178 53.1649 18.6229 51.8921 18.6229H20.0723ZM51.9275 48.392L20.09 48.3744L7.7156 36L20.09 23.6256L20.0723 23.608L51.8921 23.608L51.9275 48.392V48.392Z" fill="#E75A5A"/>
<path d="M19.2059 38.6517C20.6704 37.1872 20.6704 34.8128 19.2059 33.3483C17.7415 31.8839 15.3671 31.8839 13.9026 33.3483C12.4382 34.8128 12.4382 37.1872 13.9026 38.6517C15.3671 40.1161 17.7415 40.1161 19.2059 38.6517Z" fill="#E75A5A"/>
</svg>
