<svg viewBox="0 0 633 656" fill="none" xmlns="http://www.w3.org/2000/svg">
<path fill-rule="evenodd" clip-rule="evenodd" d="M351.028 121.796C400.254 125.969 450.936 68.9659 492.962 94.5762C534.286 119.759 523.123 182.635 528.899 230.188C533.524 268.263 530.042 304.542 523.048 342.264C514.832 386.57 514.042 434.016 484.703 468.543C450.826 508.411 412.59 420.636 359.929 423.751C306.07 426.938 220.164 561.707 183.123 523.031C148.902 487.299 165.455 396.664 162.277 347.623C159.727 308.268 185.047 274.499 188.975 235.255C194.637 178.688 143.166 101.82 190.176 68.9067C237.413 35.8337 293.302 116.902 351.028 121.796Z" fill="#38A6AD"/>
<path fill-rule="evenodd" clip-rule="evenodd" d="M205.423 164.888C251.549 138.194 260.172 56.4709 313.531 53.1893C365.997 49.9626 396.004 112.488 431.257 150.999C459.482 181.833 479.41 216.084 497.149 253.778C517.985 298.053 547.369 340.522 543.347 389.183C538.703 445.372 518.105 503.825 473.567 539.089C428.015 575.155 429.866 492.575 372.626 481.219C319.745 470.726 215.791 522.65 181.89 481.219C154.686 447.971 155.638 402.462 134.226 365.313C103.361 311.766 9.16008 275.523 29.8137 217.382C50.5676 158.959 151.333 196.191 205.423 164.888Z" fill="#0F8AE5"/>
</svg>
