<svg width="518" height="496" viewBox="0 0 518 496" fill="none" xmlns="http://www.w3.org/2000/svg">
<path fill-rule="evenodd" clip-rule="evenodd" d="M179.423 111.888C225.549 85.1943 234.172 3.47091 287.531 0.189344C339.997 -3.03738 370.004 59.4882 405.257 97.9992C433.482 128.833 453.41 163.084 471.149 200.778C491.985 245.053 521.369 287.522 517.347 336.183C512.703 392.372 492.105 450.825 447.567 486.089C402.015 522.155 403.866 439.575 346.626 428.219C293.745 417.726 189.791 469.65 155.89 428.219C128.686 394.971 129.638 349.462 108.226 312.313C77.3607 258.766 -16.8399 222.523 3.81373 164.382C24.5676 105.959 125.333 143.191 179.423 111.888Z" fill="#0F8AE5"/>
</svg>
