<svg width="370" height="469" viewBox="0 0 370 469" fill="none" xmlns="http://www.w3.org/2000/svg">
<path fill-rule="evenodd" clip-rule="evenodd" d="M190.028 60.7958C239.254 64.9691 289.936 7.96589 331.962 33.5762C373.286 58.7585 362.123 121.635 367.899 169.188C372.524 207.263 369.042 243.542 362.048 281.264C353.832 325.57 353.042 373.016 323.703 407.543C289.826 447.411 251.59 359.636 198.929 362.751C145.07 365.938 59.164 500.707 22.1229 462.031C-12.0979 426.299 4.45507 335.664 1.27736 286.623C-1.27267 247.268 24.0469 213.499 27.975 174.255C33.6371 117.688 -17.8342 40.8201 29.1755 7.90674C76.4134 -25.1663 132.302 55.902 190.028 60.7958Z" fill="#38A6AD"/>
</svg>
