<svg width="16" height="16" viewBox="0 0 16 16" fill="none" xmlns="http://www.w3.org/2000/svg">
<path fill-rule="evenodd" clip-rule="evenodd" d="M4.9765 0.710748C5.7585 0.674748 6.00784 0.666748 7.99984 0.666748C9.99184 0.666748 10.2412 0.675415 11.0225 0.710748C11.8038 0.746081 12.3372 0.870748 12.8038 1.05141C13.2925 1.23608 13.7358 1.52475 14.1025 1.89808C14.4758 2.26408 14.7638 2.70675 14.9478 3.19608C15.1292 3.66275 15.2532 4.19608 15.2892 4.97608C15.3252 5.75941 15.3332 6.00875 15.3332 8.00008C15.3332 9.99208 15.3245 10.2414 15.2892 11.0234C15.2538 11.8034 15.1292 12.3367 14.9478 12.8034C14.7638 13.2928 14.4754 13.7362 14.1025 14.1027C13.7358 14.4761 13.2925 14.7641 12.8038 14.9481C12.3372 15.1294 11.8038 15.2534 11.0238 15.2894C10.2412 15.3254 9.99184 15.3334 7.99984 15.3334C6.00784 15.3334 5.7585 15.3247 4.9765 15.2894C4.1965 15.2541 3.66317 15.1294 3.1965 14.9481C2.70712 14.7641 2.26372 14.4756 1.89717 14.1027C1.52409 13.7365 1.23538 13.2933 1.05117 12.8041C0.870504 12.3374 0.746504 11.8041 0.710504 11.0241C0.674504 10.2407 0.666504 9.99141 0.666504 8.00008C0.666504 6.00808 0.675171 5.75875 0.710504 4.97741C0.745837 4.19608 0.870504 3.66275 1.05117 3.19608C1.23565 2.7068 1.52458 2.26362 1.89784 1.89741C2.26386 1.52442 2.70682 1.23571 3.19584 1.05141C3.6625 0.870748 4.19584 0.746748 4.97584 0.710748H4.9765ZM10.9632 2.03075C10.1898 1.99541 9.95784 1.98808 7.99984 1.98808C6.04184 1.98808 5.80984 1.99541 5.0365 2.03075C4.32117 2.06341 3.93317 2.18275 3.6745 2.28341C3.3325 2.41675 3.08784 2.57475 2.83117 2.83141C2.58787 3.06812 2.40062 3.35627 2.28317 3.67475C2.1825 3.93341 2.06317 4.32141 2.0305 5.03675C1.99517 5.81008 1.98784 6.04208 1.98784 8.00008C1.98784 9.95808 1.99517 10.1901 2.0305 10.9634C2.06317 11.6787 2.1825 12.0667 2.28317 12.3254C2.4005 12.6434 2.58784 12.9321 2.83117 13.1687C3.06784 13.4121 3.3565 13.5994 3.6745 13.7167C3.93317 13.8174 4.32117 13.9367 5.0365 13.9694C5.80984 14.0047 6.04117 14.0121 7.99984 14.0121C9.9585 14.0121 10.1898 14.0047 10.9632 13.9694C11.6785 13.9367 12.0665 13.8174 12.3252 13.7167C12.6672 13.5834 12.9118 13.4254 13.1685 13.1687C13.4118 12.9321 13.5992 12.6434 13.7165 12.3254C13.8172 12.0667 13.9365 11.6787 13.9692 10.9634C14.0045 10.1901 14.0118 9.95808 14.0118 8.00008C14.0118 6.04208 14.0045 5.81008 13.9692 5.03675C13.9365 4.32141 13.8172 3.93341 13.7165 3.67475C13.5832 3.33275 13.4252 3.08808 13.1685 2.83141C12.9318 2.58813 12.6436 2.40089 12.3252 2.28341C12.0665 2.18275 11.6785 2.06341 10.9632 2.03075ZM7.06317 10.2607C7.58628 10.4785 8.16876 10.5079 8.71112 10.3439C9.25349 10.1799 9.7221 9.83269 10.0369 9.36158C10.3517 8.89046 10.4932 8.32466 10.4372 7.76082C10.3812 7.19697 10.1312 6.67006 9.72984 6.27008C9.474 6.0144 9.16465 5.81862 8.82406 5.69685C8.48347 5.57507 8.12012 5.53032 7.76017 5.56582C7.40021 5.60133 7.05261 5.7162 6.74237 5.90217C6.43214 6.08814 6.167 6.34058 5.96604 6.64131C5.76508 6.94205 5.6333 7.28361 5.58018 7.64139C5.52707 7.99917 5.55394 8.36428 5.65886 8.71043C5.76379 9.05657 5.94416 9.37515 6.18698 9.64323C6.42981 9.9113 6.72905 10.1222 7.06317 10.2607ZM5.3345 5.33475C5.68452 4.98473 6.10005 4.70708 6.55737 4.51766C7.01469 4.32823 7.50484 4.23073 7.99984 4.23073C8.49483 4.23073 8.98499 4.32823 9.4423 4.51766C9.89962 4.70708 10.3152 4.98473 10.6652 5.33475C11.0152 5.68476 11.2928 6.10029 11.4823 6.55761C11.6717 7.01493 11.7692 7.50508 11.7692 8.00008C11.7692 8.49508 11.6717 8.98523 11.4823 9.44255C11.2928 9.89987 11.0152 10.3154 10.6652 10.6654C9.95828 11.3723 8.99953 11.7694 7.99984 11.7694C7.00014 11.7694 6.04139 11.3723 5.3345 10.6654C4.62761 9.95852 4.23049 8.99977 4.23049 8.00008C4.23049 7.00039 4.62761 6.04164 5.3345 5.33475ZM12.6052 4.79208C12.6919 4.71026 12.7613 4.61187 12.8094 4.50273C12.8574 4.39359 12.883 4.27593 12.8848 4.1567C12.8865 4.03748 12.8643 3.91911 12.8195 3.80862C12.7747 3.69813 12.7081 3.59775 12.6238 3.51344C12.5395 3.42913 12.4391 3.36259 12.3286 3.31776C12.2181 3.27293 12.0998 3.25073 11.9805 3.25247C11.8613 3.25421 11.7437 3.27985 11.6345 3.32788C11.5254 3.37591 11.427 3.44534 11.3452 3.53208C11.186 3.70077 11.0989 3.92483 11.1023 4.1567C11.1057 4.38857 11.1993 4.61 11.3633 4.77398C11.5273 4.93795 11.7487 5.03157 11.9805 5.03495C12.2124 5.03833 12.4365 4.95121 12.6052 4.79208Z" fill="white"/>
</svg>
