<svg width="16" height="16" viewBox="0 0 16 16" fill="none" xmlns="http://www.w3.org/2000/svg">
<path d="M10.0331 3.33341C10.6843 3.46046 11.2827 3.77892 11.7518 4.24804C12.221 4.71716 12.5394 5.31559 12.6665 5.96675L10.0331 3.33341ZM10.0331 0.666748C11.386 0.817039 12.6475 1.42286 13.6106 2.38475C14.5737 3.34664 15.1811 4.60742 15.3331 5.96008L10.0331 0.666748ZM14.6665 11.2801V13.2801C14.6672 13.4657 14.6292 13.6495 14.5548 13.8196C14.4804 13.9898 14.3713 14.1425 14.2345 14.268C14.0977 14.3935 13.9362 14.4891 13.7603 14.5486C13.5844 14.608 13.398 14.6301 13.2131 14.6134C11.1617 14.3905 9.19113 13.6895 7.45979 12.5667C5.84901 11.5432 4.48335 10.1775 3.45979 8.56675C2.33311 6.82755 1.63195 4.84741 1.41313 2.78675C1.39647 2.60239 1.41838 2.41659 1.47746 2.24116C1.53654 2.06574 1.63151 1.90454 1.7563 1.76783C1.8811 1.63112 2.033 1.52189 2.20232 1.4471C2.37164 1.3723 2.55469 1.33359 2.73979 1.33341H4.73979C5.06333 1.33023 5.37699 1.4448 5.6223 1.65577C5.86761 1.86674 6.02784 2.15971 6.07313 2.48008C6.15754 3.12013 6.31409 3.74857 6.53979 4.35341C6.62949 4.59203 6.6489 4.85136 6.59573 5.10067C6.54256 5.34998 6.41903 5.57882 6.23979 5.76008L5.39313 6.60675C6.34216 8.27578 7.7241 9.65771 9.39313 10.6067L10.2398 9.76008C10.4211 9.58084 10.6499 9.45731 10.8992 9.40414C11.1485 9.35097 11.4078 9.37039 11.6465 9.46008C12.2513 9.68578 12.8797 9.84233 13.5198 9.92675C13.8436 9.97243 14.1394 10.1356 14.3508 10.3851C14.5622 10.6346 14.6746 10.9531 14.6665 11.2801Z" stroke="white" stroke-width="2" stroke-linecap="round" stroke-linejoin="round"/>
</svg>
