<svg width="761" height="512" viewBox="0 0 761 512" fill="none" xmlns="http://www.w3.org/2000/svg">
<path d="M758.526 499.3L405.926 13.2C393.126 -4.4 366.926 -4.4 354.226 13.2L1.52623 499.3C0.658271 500.496 0.138315 501.908 0.0239919 503.381C-0.0903316 504.854 0.205447 506.33 0.878545 507.645C1.55164 508.96 2.57576 510.063 3.83739 510.832C5.09902 511.601 6.54887 512.005 8.02623 512H83.0262C88.1262 512 92.9262 509.5 95.9262 505.4L380.026 113.8L664.126 505.4C667.126 509.5 671.926 512 677.026 512H752.026C758.526 512 762.326 504.6 758.526 499.3V499.3Z" fill="black"/>
</svg>
