<svg width="15" height="15" viewBox="0 0 15 15" fill="none" xmlns="http://www.w3.org/2000/svg">
<path fill-rule="evenodd" clip-rule="evenodd" d="M12.6267 2.36805C11.9809 1.72113 11.2126 1.20817 10.3662 0.858891C9.51984 0.509612 8.61224 0.330957 7.696 0.333274C3.85396 0.333274 0.726293 3.44533 0.72474 7.27067C0.72474 8.49323 1.04543 9.68643 1.65497 10.739L0.666504 14.3333L4.36178 13.368C5.38394 13.9218 6.5291 14.2122 7.69289 14.2127H7.696C11.5373 14.2127 14.6649 11.1006 14.6665 7.2753C14.6691 6.36378 14.4902 5.46077 14.1401 4.61848C13.79 3.77618 13.2756 3.0113 12.6267 2.36805ZM7.696 13.0419H7.69367C6.65591 13.042 5.63726 12.7641 4.74459 12.2374L4.53338 12.1122L2.3406 12.6849L2.92529 10.5574L2.78785 10.3394C2.20766 9.42014 1.90051 8.35628 1.90189 7.27067C1.90344 4.09138 4.50232 1.50483 7.69833 1.50483C8.45947 1.50315 9.2134 1.65173 9.91646 1.94197C10.6195 2.23221 11.2578 2.65834 11.7943 3.19571C12.3336 3.73052 12.7611 4.36642 13.0521 5.06665C13.343 5.76688 13.4916 6.51756 13.4893 7.2753C13.4878 10.4546 10.8889 13.0419 7.696 13.0419ZM10.8741 8.72275C10.6994 8.63542 9.84375 8.21657 9.68379 8.15861C9.52461 8.10065 9.40892 8.07206 9.29244 8.24516C9.17597 8.41827 8.84208 8.80853 8.74036 8.92445C8.63864 9.04037 8.53693 9.05428 8.36299 8.96773C8.18906 8.88117 7.62767 8.69802 6.96222 8.10761C6.44431 7.64779 6.09489 7.08056 5.99317 6.90668C5.89145 6.7328 5.9823 6.63929 6.07004 6.55274C6.14847 6.47546 6.24397 6.35027 6.33094 6.24903C6.41791 6.14779 6.44664 6.07592 6.50487 5.96C6.56311 5.84408 6.53438 5.74285 6.49012 5.65629C6.44664 5.56897 6.098 4.7158 5.95279 4.36882C5.81225 4.03265 5.6686 4.07747 5.56145 4.07284C5.45047 4.06832 5.33941 4.06626 5.22834 4.06665C5.14002 4.06889 5.05311 4.08927 4.97308 4.1265C4.89304 4.16374 4.82159 4.21703 4.76322 4.28304C4.60327 4.45692 4.15368 4.87577 4.15368 5.72894C4.15368 6.58211 4.77798 7.40668 4.86494 7.5226C4.95191 7.63852 6.09334 9.3889 7.84042 10.1401C8.25662 10.3186 8.58119 10.4252 8.83354 10.5056C9.25051 10.6377 9.63021 10.6184 9.93071 10.5744C10.2654 10.5249 10.9611 10.1555 11.1063 9.75057C11.2515 9.34562 11.2515 8.99864 11.208 8.926C11.1645 8.85335 11.0473 8.8093 10.8741 8.72275Z" fill="white"/>
</svg>
